<svg width="241" height="40" viewBox="0 0 241 40" fill="none" xmlns="http://www.w3.org/2000/svg">
<rect width="40" height="40" rx="12.8" fill="white"/>
<path d="M13.6149 23.2024L12.2499 20.9459C9.98818 17.2071 11.2215 12.321 15.0047 10.0325C18.7878 7.74396 23.6881 8.9196 25.9498 12.6584C27.326 14.9334 27.4012 17.8863 25.8451 20.3521M13.6149 23.2024L17.3757 20.9274M13.6149 23.2024L18.1919 30.7685M17.3757 20.9274L21.7092 18.306C22.7281 17.6896 23.0544 16.3639 22.438 15.345L22.189 14.9334C21.1691 13.2473 18.9591 12.7171 17.253 13.7492C15.5469 14.7812 14.9907 16.9848 16.0106 18.6709L17.3757 20.9274ZM25.8451 20.3521C25.1978 21.3779 24.3064 22.2744 23.195 22.9468L20.1058 24.8155L21.7567 27.5446C21.8821 27.7518 22.0852 27.9003 22.3207 27.9568L26.0177 28.8437C26.5004 28.9595 26.9864 28.6655 27.1079 28.1842L28.0384 24.498C28.0977 24.2631 28.0605 24.0143 27.9351 23.8071L25.8451 20.3521Z" stroke="#008080" stroke-width="2.22222" stroke-linecap="round" stroke-linejoin="round"/>
<path d="M54.1772 10.5762H58.808V29.7571H54.1772V10.5762ZM57.0818 14.385V10.5762H60.8357C62.4616 10.5762 63.8225 10.8319 64.9185 11.3434C66.0329 11.8366 66.8732 12.5491 67.4395 13.4807C68.0058 14.4124 68.2889 15.5358 68.2889 16.8511C68.2889 18.1298 68.0058 19.2441 67.4395 20.194C66.8732 21.1257 66.0329 21.8473 64.9185 22.3587C63.8225 22.852 62.4616 23.0986 60.8357 23.0986H57.0818V19.2898H60.8357C61.7674 19.2898 62.4981 19.0797 63.0278 18.6596C63.5576 18.2394 63.8225 17.6366 63.8225 16.8511C63.8225 16.0473 63.5576 15.4353 63.0278 15.0152C62.4981 14.595 61.7674 14.385 60.8357 14.385H57.0818Z" fill="white"/>
<path d="M79.8797 23.4548C79.8797 22.1213 80.1902 20.9613 80.8113 19.9748C81.4324 18.9884 82.291 18.2211 83.387 17.6731C84.4831 17.1251 85.7162 16.8511 87.0862 16.8511C88.4563 16.8511 89.6802 17.1251 90.758 17.6731C91.8541 18.2211 92.7126 18.9884 93.3337 19.9748C93.9731 20.9613 94.2928 22.1213 94.2928 23.4548C94.2928 24.7701 93.9731 25.9209 93.3337 26.9074C92.7126 27.8938 91.8541 28.6611 90.758 29.2091C89.6802 29.7571 88.4563 30.0311 87.0862 30.0311C85.7162 30.0311 84.4831 29.7571 83.387 29.2091C82.291 28.6611 81.4324 27.8938 80.8113 26.9074C80.1902 25.9209 79.8797 24.7701 79.8797 23.4548ZM84.1269 23.4548C84.1269 24.1124 84.2639 24.6787 84.5379 25.1537C84.8119 25.6104 85.1681 25.9666 85.6066 26.2223C86.045 26.4781 86.5382 26.606 87.0862 26.606C87.616 26.606 88.1001 26.4781 88.5385 26.2223C88.9952 25.9666 89.3514 25.6104 89.6071 25.1537C89.8812 24.6787 90.0182 24.1124 90.0182 23.4548C90.0182 22.7972 89.8812 22.2309 89.6071 21.7559C89.3514 21.281 88.9952 20.9156 88.5385 20.6599C88.1001 20.4041 87.616 20.2762 87.0862 20.2762C86.5382 20.2762 86.045 20.4041 85.6066 20.6599C85.1681 20.9156 84.8119 21.281 84.5379 21.7559C84.2639 22.2309 84.1269 22.7972 84.1269 23.4548Z" fill="white"/>
<path d="M99.988 23.4548C99.988 24.1307 100.134 24.7153 100.426 25.2085C100.719 25.6834 101.121 26.0579 101.632 26.3319C102.162 26.606 102.728 26.743 103.331 26.743C103.842 26.743 104.327 26.6699 104.783 26.5238C105.258 26.3593 105.687 26.1401 106.071 25.8661C106.473 25.5921 106.802 25.2542 107.058 24.8523V28.8803C106.619 29.2274 106.071 29.5105 105.413 29.7297C104.756 29.9307 103.952 30.0311 103.002 30.0311C101.614 30.0311 100.362 29.7571 99.2481 29.2091C98.1521 28.6611 97.2844 27.8938 96.645 26.9074C96.0239 25.9209 95.7134 24.7701 95.7134 23.4548C95.7134 22.1213 96.0239 20.9704 96.645 20.0022C97.2844 19.0158 98.1521 18.2485 99.2481 17.7005C100.362 17.1525 101.614 16.8785 103.002 16.8785C103.952 16.8785 104.756 16.9881 105.413 17.2073C106.071 17.4082 106.619 17.664 107.058 17.9745V22.0299C106.802 21.628 106.464 21.2901 106.044 21.0161C105.642 20.7421 105.203 20.532 104.728 20.3859C104.253 20.2397 103.788 20.1666 103.331 20.1666C102.728 20.1666 102.162 20.3128 101.632 20.6051C101.121 20.8973 100.719 21.2901 100.426 21.7833C100.134 22.2765 99.988 22.8337 99.988 23.4548Z" fill="white"/>
<path d="M108.294 17.1525H116.734V20.5777H108.294V17.1525ZM110.514 12.7683H114.487V29.7571H110.514V12.7683Z" fill="white"/>
<path d="M117.484 23.4548C117.484 22.1213 117.794 20.9613 118.415 19.9748C119.036 18.9884 119.895 18.2211 120.991 17.6731C122.087 17.1251 123.32 16.8511 124.69 16.8511C126.06 16.8511 127.284 17.1251 128.362 17.6731C129.458 18.2211 130.317 18.9884 130.938 19.9748C131.577 20.9613 131.897 22.1213 131.897 23.4548C131.897 24.7701 131.577 25.9209 130.938 26.9074C130.317 27.8938 129.458 28.6611 128.362 29.2091C127.284 29.7571 126.06 30.0311 124.69 30.0311C123.32 30.0311 122.087 29.7571 120.991 29.2091C119.895 28.6611 119.036 27.8938 118.415 26.9074C117.794 25.9209 117.484 24.7701 117.484 23.4548ZM121.731 23.4548C121.731 24.1124 121.868 24.6787 122.142 25.1537C122.416 25.6104 122.772 25.9666 123.211 26.2223C123.649 26.4781 124.142 26.606 124.69 26.606C125.22 26.606 125.704 26.4781 126.143 26.2223C126.599 25.9666 126.955 25.6104 127.211 25.1537C127.485 24.6787 127.622 24.1124 127.622 23.4548C127.622 22.7972 127.485 22.2309 127.211 21.7559C126.955 21.281 126.599 20.9156 126.143 20.6599C125.704 20.4041 125.22 20.2762 124.69 20.2762C124.142 20.2762 123.649 20.4041 123.211 20.6599C122.772 20.9156 122.416 21.281 122.142 21.7559C121.868 22.2309 121.731 22.7972 121.731 23.4548Z" fill="white"/>
<path d="M138.195 17.1525V29.7571H134.112V17.1525H138.195ZM141.839 21.4271C141.62 21.2079 141.383 21.0344 141.127 20.9065C140.889 20.7786 140.588 20.7147 140.223 20.7147C139.821 20.7147 139.464 20.8243 139.154 21.0435C138.843 21.2627 138.606 21.5824 138.441 22.0025C138.277 22.4227 138.195 22.9342 138.195 23.537L137.208 22.0847C137.208 21.08 137.4 20.1849 137.784 19.3994C138.186 18.6139 138.706 17.9928 139.346 17.5361C139.985 17.0794 140.652 16.8511 141.346 16.8511C141.803 16.8511 142.241 16.9424 142.661 17.1251C143.081 17.3078 143.401 17.5635 143.62 17.8923L141.839 21.4271Z" fill="white"/>
<path d="M72.5464 17.5914L75.8087 29.7665L71.865 30.8232L68.6027 18.6481L72.5464 17.5914ZM77.1729 20.7771C76.9044 20.6221 76.6301 20.5159 76.35 20.4586C76.0875 20.3965 75.7798 20.4128 75.4269 20.5074C75.0387 20.6114 74.723 20.8094 74.4798 21.1016C74.2366 21.3937 74.0899 21.7639 74.0398 22.2123C73.9898 22.6607 74.0428 23.176 74.1988 23.7583L72.8701 22.6109C72.61 21.6404 72.5636 20.7261 72.7309 19.8681C72.9158 19.0053 73.2579 18.2707 73.7573 17.6641C74.2567 17.0574 74.8416 16.6643 75.5121 16.4846C75.9532 16.3664 76.4004 16.3412 76.8535 16.4089C77.3066 16.4766 77.6816 16.6409 77.9784 16.9018L77.1729 20.7771Z" fill="white"/>
<mask id="path-5-outside-1_185_3713" maskUnits="userSpaceOnUse" x="148.696" y="8.17627" width="79" height="24" fill="black">
<rect fill="white" x="148.696" y="8.17627" width="79" height="24"/>
<path d="M149.696 11.3684H154.327V30.5493H149.696V11.3684ZM152.601 15.1772V11.3684H156.355C157.981 11.3684 159.342 11.6241 160.438 12.1356C161.552 12.6288 162.392 13.3413 162.959 14.2729C163.525 15.2046 163.808 16.328 163.808 17.6433C163.808 18.922 163.525 20.0363 162.959 20.9862C162.392 21.9179 161.552 22.6395 160.438 23.151C159.342 23.6442 157.981 23.8908 156.355 23.8908H152.601V20.082H156.355C157.286 20.082 158.017 19.8719 158.547 19.4518C159.077 19.0316 159.342 18.4288 159.342 17.6433C159.342 16.8395 159.077 16.2275 158.547 15.8074C158.017 15.3872 157.286 15.1772 156.355 15.1772H152.601Z"/>
<path d="M168.734 26.6035C168.734 26.9323 168.816 27.2155 168.981 27.453C169.145 27.6722 169.364 27.8457 169.638 27.9736C169.912 28.0832 170.214 28.138 170.543 28.138C171.017 28.138 171.456 28.0375 171.858 27.8366C172.26 27.6356 172.588 27.3342 172.844 26.9323C173.1 26.5305 173.228 26.0372 173.228 25.4527L173.666 27.0967C173.666 27.9005 173.447 28.5856 173.009 29.1518C172.57 29.6999 172.004 30.12 171.31 30.4123C170.616 30.6863 169.867 30.8233 169.063 30.8233C168.259 30.8233 167.51 30.6772 166.816 30.3849C166.14 30.0744 165.592 29.6177 165.172 29.0148C164.77 28.412 164.569 27.6813 164.569 26.8227C164.569 25.6171 164.998 24.6672 165.857 23.973C166.715 23.2606 167.93 22.9043 169.501 22.9043C170.268 22.9043 170.954 22.9774 171.556 23.1236C172.177 23.2697 172.707 23.4524 173.146 23.6716C173.584 23.8908 173.913 24.1191 174.132 24.3566V26.1925C173.694 25.8637 173.182 25.6171 172.598 25.4527C172.031 25.27 171.428 25.1787 170.789 25.1787C170.296 25.1787 169.903 25.2335 169.611 25.3431C169.319 25.4527 169.099 25.6171 168.953 25.8363C168.807 26.0372 168.734 26.293 168.734 26.6035ZM166.898 21.8083L165.501 19.0408C166.213 18.6937 167.072 18.3649 168.076 18.0543C169.081 17.7438 170.177 17.5885 171.365 17.5885C172.479 17.5885 173.474 17.7529 174.351 18.0817C175.228 18.3923 175.922 18.8489 176.434 19.4518C176.945 20.0546 177.201 20.7944 177.201 21.6713V30.5493H173.228V22.6029C173.228 22.2924 173.173 22.0275 173.063 21.8083C172.972 21.5708 172.826 21.3699 172.625 21.2055C172.424 21.041 172.168 20.9223 171.858 20.8492C171.565 20.7762 171.228 20.7396 170.844 20.7396C170.278 20.7396 169.72 20.8036 169.172 20.9314C168.643 21.0593 168.177 21.2146 167.775 21.3973C167.373 21.5617 167.081 21.6987 166.898 21.8083Z"/>
<path d="M184.382 17.9447V30.5493H180.299V17.9447H184.382ZM188.026 22.2193C187.807 22.0001 187.57 21.8266 187.314 21.6987C187.076 21.5708 186.775 21.5069 186.41 21.5069C186.008 21.5069 185.651 21.6165 185.341 21.8357C185.03 22.0549 184.793 22.3746 184.629 22.7947C184.464 23.2149 184.382 23.7264 184.382 24.3292L183.395 22.8769C183.395 21.8722 183.587 20.9771 183.971 20.1916C184.373 19.4061 184.893 18.785 185.533 18.3283C186.172 17.8716 186.839 17.6433 187.533 17.6433C187.99 17.6433 188.428 17.7346 188.848 17.9173C189.268 18.1 189.588 18.3557 189.807 18.6845L188.026 22.2193Z"/>
<path d="M195.73 9.17627V30.5493H191.565V9.17627H195.73ZM199.758 22.8769C199.758 22.128 199.621 21.5525 199.347 21.1507C199.073 20.7488 198.598 20.5478 197.922 20.5478C197.483 20.5478 197.1 20.6483 196.771 20.8492C196.442 21.0319 196.186 21.2968 196.004 21.6439C195.821 21.9727 195.73 22.3837 195.73 22.8769H195.017C195.017 21.8722 195.182 20.968 195.51 20.1642C195.839 19.3422 196.333 18.6937 196.99 18.2187C197.666 17.7255 198.525 17.4789 199.566 17.4789C200.607 17.4789 201.438 17.6616 202.059 18.0269C202.699 18.3923 203.165 18.9311 203.457 19.6436C203.749 20.356 203.895 21.2329 203.895 22.2741V30.5493H199.758V22.8769Z"/>
<path d="M210.371 26.6035C210.371 26.9323 210.453 27.2155 210.618 27.453C210.782 27.6722 211.001 27.8457 211.275 27.9736C211.549 28.0832 211.851 28.138 212.18 28.138C212.655 28.138 213.093 28.0375 213.495 27.8366C213.897 27.6356 214.226 27.3342 214.481 26.9323C214.737 26.5305 214.865 26.0372 214.865 25.4527L215.303 27.0967C215.303 27.9005 215.084 28.5856 214.646 29.1518C214.207 29.6999 213.641 30.12 212.947 30.4123C212.253 30.6863 211.504 30.8233 210.7 30.8233C209.896 30.8233 209.147 30.6772 208.453 30.3849C207.777 30.0744 207.229 29.6177 206.809 29.0148C206.407 28.412 206.206 27.6813 206.206 26.8227C206.206 25.6171 206.635 24.6672 207.494 23.973C208.353 23.2606 209.567 22.9043 211.138 22.9043C211.906 22.9043 212.591 22.9774 213.194 23.1236C213.815 23.2697 214.344 23.4524 214.783 23.6716C215.221 23.8908 215.55 24.1191 215.769 24.3566V26.1925C215.331 25.8637 214.819 25.6171 214.235 25.4527C213.668 25.27 213.066 25.1787 212.426 25.1787C211.933 25.1787 211.54 25.2335 211.248 25.3431C210.956 25.4527 210.737 25.6171 210.59 25.8363C210.444 26.0372 210.371 26.293 210.371 26.6035ZM208.535 21.8083L207.138 19.0408C207.85 18.6937 208.709 18.3649 209.714 18.0543C210.718 17.7438 211.814 17.5885 213.002 17.5885C214.116 17.5885 215.112 17.7529 215.988 18.0817C216.865 18.3923 217.559 18.8489 218.071 19.4518C218.582 20.0546 218.838 20.7944 218.838 21.6713V30.5493H214.865V22.6029C214.865 22.2924 214.81 22.0275 214.701 21.8083C214.609 21.5708 214.463 21.3699 214.262 21.2055C214.061 21.041 213.806 20.9223 213.495 20.8492C213.203 20.7762 212.865 20.7396 212.481 20.7396C211.915 20.7396 211.358 20.8036 210.81 20.9314C210.28 21.0593 209.814 21.2146 209.412 21.3973C209.01 21.5617 208.718 21.6987 208.535 21.8083Z"/>
<path d="M222.101 17.9447H226.101V30.5493H222.101V17.9447Z"/>
</mask>
<path d="M149.696 11.3684H154.327V30.5493H149.696V11.3684ZM152.601 15.1772V11.3684H156.355C157.981 11.3684 159.342 11.6241 160.438 12.1356C161.552 12.6288 162.392 13.3413 162.959 14.2729C163.525 15.2046 163.808 16.328 163.808 17.6433C163.808 18.922 163.525 20.0363 162.959 20.9862C162.392 21.9179 161.552 22.6395 160.438 23.151C159.342 23.6442 157.981 23.8908 156.355 23.8908H152.601V20.082H156.355C157.286 20.082 158.017 19.8719 158.547 19.4518C159.077 19.0316 159.342 18.4288 159.342 17.6433C159.342 16.8395 159.077 16.2275 158.547 15.8074C158.017 15.3872 157.286 15.1772 156.355 15.1772H152.601Z" stroke="white" stroke-width="1.48148" mask="url(#path-5-outside-1_185_3713)"/>
<path d="M168.734 26.6035C168.734 26.9323 168.816 27.2155 168.981 27.453C169.145 27.6722 169.364 27.8457 169.638 27.9736C169.912 28.0832 170.214 28.138 170.543 28.138C171.017 28.138 171.456 28.0375 171.858 27.8366C172.26 27.6356 172.588 27.3342 172.844 26.9323C173.1 26.5305 173.228 26.0372 173.228 25.4527L173.666 27.0967C173.666 27.9005 173.447 28.5856 173.009 29.1518C172.57 29.6999 172.004 30.12 171.31 30.4123C170.616 30.6863 169.867 30.8233 169.063 30.8233C168.259 30.8233 167.51 30.6772 166.816 30.3849C166.14 30.0744 165.592 29.6177 165.172 29.0148C164.77 28.412 164.569 27.6813 164.569 26.8227C164.569 25.6171 164.998 24.6672 165.857 23.973C166.715 23.2606 167.93 22.9043 169.501 22.9043C170.268 22.9043 170.954 22.9774 171.556 23.1236C172.177 23.2697 172.707 23.4524 173.146 23.6716C173.584 23.8908 173.913 24.1191 174.132 24.3566V26.1925C173.694 25.8637 173.182 25.6171 172.598 25.4527C172.031 25.27 171.428 25.1787 170.789 25.1787C170.296 25.1787 169.903 25.2335 169.611 25.3431C169.319 25.4527 169.099 25.6171 168.953 25.8363C168.807 26.0372 168.734 26.293 168.734 26.6035ZM166.898 21.8083L165.501 19.0408C166.213 18.6937 167.072 18.3649 168.076 18.0543C169.081 17.7438 170.177 17.5885 171.365 17.5885C172.479 17.5885 173.474 17.7529 174.351 18.0817C175.228 18.3923 175.922 18.8489 176.434 19.4518C176.945 20.0546 177.201 20.7944 177.201 21.6713V30.5493H173.228V22.6029C173.228 22.2924 173.173 22.0275 173.063 21.8083C172.972 21.5708 172.826 21.3699 172.625 21.2055C172.424 21.041 172.168 20.9223 171.858 20.8492C171.565 20.7762 171.228 20.7396 170.844 20.7396C170.278 20.7396 169.72 20.8036 169.172 20.9314C168.643 21.0593 168.177 21.2146 167.775 21.3973C167.373 21.5617 167.081 21.6987 166.898 21.8083Z" stroke="white" stroke-width="1.48148" mask="url(#path-5-outside-1_185_3713)"/>
<path d="M184.382 17.9447V30.5493H180.299V17.9447H184.382ZM188.026 22.2193C187.807 22.0001 187.57 21.8266 187.314 21.6987C187.076 21.5708 186.775 21.5069 186.41 21.5069C186.008 21.5069 185.651 21.6165 185.341 21.8357C185.03 22.0549 184.793 22.3746 184.629 22.7947C184.464 23.2149 184.382 23.7264 184.382 24.3292L183.395 22.8769C183.395 21.8722 183.587 20.9771 183.971 20.1916C184.373 19.4061 184.893 18.785 185.533 18.3283C186.172 17.8716 186.839 17.6433 187.533 17.6433C187.99 17.6433 188.428 17.7346 188.848 17.9173C189.268 18.1 189.588 18.3557 189.807 18.6845L188.026 22.2193Z" stroke="white" stroke-width="1.48148" mask="url(#path-5-outside-1_185_3713)"/>
<path d="M195.73 9.17627V30.5493H191.565V9.17627H195.73ZM199.758 22.8769C199.758 22.128 199.621 21.5525 199.347 21.1507C199.073 20.7488 198.598 20.5478 197.922 20.5478C197.483 20.5478 197.1 20.6483 196.771 20.8492C196.442 21.0319 196.186 21.2968 196.004 21.6439C195.821 21.9727 195.73 22.3837 195.73 22.8769H195.017C195.017 21.8722 195.182 20.968 195.51 20.1642C195.839 19.3422 196.333 18.6937 196.99 18.2187C197.666 17.7255 198.525 17.4789 199.566 17.4789C200.607 17.4789 201.438 17.6616 202.059 18.0269C202.699 18.3923 203.165 18.9311 203.457 19.6436C203.749 20.356 203.895 21.2329 203.895 22.2741V30.5493H199.758V22.8769Z" stroke="white" stroke-width="1.48148" mask="url(#path-5-outside-1_185_3713)"/>
<path d="M210.371 26.6035C210.371 26.9323 210.453 27.2155 210.618 27.453C210.782 27.6722 211.001 27.8457 211.275 27.9736C211.549 28.0832 211.851 28.138 212.18 28.138C212.655 28.138 213.093 28.0375 213.495 27.8366C213.897 27.6356 214.226 27.3342 214.481 26.9323C214.737 26.5305 214.865 26.0372 214.865 25.4527L215.303 27.0967C215.303 27.9005 215.084 28.5856 214.646 29.1518C214.207 29.6999 213.641 30.12 212.947 30.4123C212.253 30.6863 211.504 30.8233 210.7 30.8233C209.896 30.8233 209.147 30.6772 208.453 30.3849C207.777 30.0744 207.229 29.6177 206.809 29.0148C206.407 28.412 206.206 27.6813 206.206 26.8227C206.206 25.6171 206.635 24.6672 207.494 23.973C208.353 23.2606 209.567 22.9043 211.138 22.9043C211.906 22.9043 212.591 22.9774 213.194 23.1236C213.815 23.2697 214.344 23.4524 214.783 23.6716C215.221 23.8908 215.55 24.1191 215.769 24.3566V26.1925C215.331 25.8637 214.819 25.6171 214.235 25.4527C213.668 25.27 213.066 25.1787 212.426 25.1787C211.933 25.1787 211.54 25.2335 211.248 25.3431C210.956 25.4527 210.737 25.6171 210.59 25.8363C210.444 26.0372 210.371 26.293 210.371 26.6035ZM208.535 21.8083L207.138 19.0408C207.85 18.6937 208.709 18.3649 209.714 18.0543C210.718 17.7438 211.814 17.5885 213.002 17.5885C214.116 17.5885 215.112 17.7529 215.988 18.0817C216.865 18.3923 217.559 18.8489 218.071 19.4518C218.582 20.0546 218.838 20.7944 218.838 21.6713V30.5493H214.865V22.6029C214.865 22.2924 214.81 22.0275 214.701 21.8083C214.609 21.5708 214.463 21.3699 214.262 21.2055C214.061 21.041 213.806 20.9223 213.495 20.8492C213.203 20.7762 212.865 20.7396 212.481 20.7396C211.915 20.7396 211.358 20.8036 210.81 20.9314C210.28 21.0593 209.814 21.2146 209.412 21.3973C209.01 21.5617 208.718 21.6987 208.535 21.8083Z" stroke="white" stroke-width="1.48148" mask="url(#path-5-outside-1_185_3713)"/>
<path d="M222.101 17.9447H226.101V30.5493H222.101V17.9447Z" stroke="white" stroke-width="1.48148" mask="url(#path-5-outside-1_185_3713)"/>
<rect width="13.1646" height="4.93671" transform="translate(212.988 9.17627)" fill="white"/>
<path d="M236.49 24.4817C236.759 24.4817 237.036 24.5172 237.32 24.5882C237.604 24.6592 237.892 24.7732 238.184 24.9302V25.6367C237.907 25.4909 237.632 25.3825 237.359 25.3115C237.086 25.2367 236.825 25.1994 236.574 25.1994C236.365 25.1994 236.171 25.2293 235.991 25.2891C235.812 25.3489 235.655 25.4405 235.52 25.5638C235.389 25.6834 235.285 25.8348 235.206 26.018C235.131 26.1974 235.094 26.4086 235.094 26.6516C235.094 26.8945 235.131 27.1076 235.206 27.2908C235.285 27.4702 235.389 27.6216 235.52 27.7449C235.655 27.8646 235.812 27.9543 235.991 28.0141C236.171 28.0739 236.365 28.1038 236.574 28.1038C236.825 28.1038 237.086 28.0683 237.359 27.9973C237.632 27.9225 237.907 27.8122 238.184 27.6664V28.3729C237.892 28.5299 237.604 28.6439 237.32 28.7149C237.036 28.786 236.759 28.8215 236.49 28.8215C236.154 28.8215 235.84 28.7654 235.548 28.6533C235.257 28.5374 235.004 28.3823 234.791 28.1879C234.578 27.9898 234.41 27.7599 234.287 27.4982C234.163 27.2328 234.102 26.9506 234.102 26.6516C234.102 26.3525 234.163 26.0722 234.287 25.8105C234.41 25.5451 234.578 25.3152 234.791 25.1209C235.004 24.9227 235.257 24.7676 235.548 24.6555C235.84 24.5396 236.154 24.4817 236.49 24.4817ZM236.406 30.8232C236.051 30.8232 235.702 30.7802 235.358 30.6942C235.014 30.6045 234.687 30.4774 234.376 30.3129C234.066 30.1447 233.78 29.941 233.519 29.7018C233.257 29.4588 233.031 29.1841 232.84 28.8776C232.649 28.5673 232.5 28.2271 232.392 27.8571C232.283 27.4833 232.229 27.0833 232.229 26.6572C232.229 26.231 232.285 25.833 232.397 25.4629C232.509 25.0891 232.664 24.7471 232.863 24.4368C233.061 24.1266 233.292 23.8499 233.558 23.607C233.827 23.3603 234.115 23.1528 234.421 22.9846C234.732 22.8164 235.055 22.6893 235.391 22.6033C235.731 22.5136 236.07 22.4688 236.406 22.4688C236.746 22.4688 237.085 22.5136 237.421 22.6033C237.761 22.693 238.086 22.822 238.397 22.9902C238.707 23.1584 238.995 23.3659 239.26 23.6126C239.525 23.8555 239.755 24.1322 239.95 24.4424C240.148 24.7527 240.303 25.0947 240.415 25.4685C240.527 25.8386 240.583 26.2348 240.583 26.6572C240.583 27.0721 240.531 27.4646 240.426 27.8346C240.322 28.201 240.174 28.5393 239.983 28.8495C239.796 29.156 239.572 29.4326 239.311 29.6794C239.053 29.9223 238.769 30.1298 238.458 30.3017C238.152 30.4699 237.823 30.5989 237.471 30.6886C237.124 30.7783 236.769 30.8232 236.406 30.8232ZM239.754 26.6628C239.754 26.3002 239.707 25.9638 239.613 25.6535C239.524 25.3395 239.398 25.0536 239.238 24.7957C239.077 24.534 238.888 24.3022 238.671 24.1004C238.455 23.8985 238.223 23.7303 237.976 23.5958C237.729 23.4575 237.471 23.3528 237.202 23.2818C236.933 23.207 236.668 23.1696 236.406 23.1696C236.137 23.1696 235.868 23.207 235.599 23.2818C235.33 23.3528 235.07 23.4575 234.819 23.5958C234.573 23.7341 234.341 23.9041 234.124 24.106C233.911 24.3078 233.726 24.5396 233.569 24.8013C233.412 25.0592 233.287 25.3451 233.193 25.6591C233.104 25.9694 233.059 26.3039 233.059 26.6628C233.059 27.1413 233.139 27.5917 233.3 28.0141C233.461 28.4327 233.687 28.7991 233.978 29.113C234.274 29.427 234.627 29.6756 235.038 29.8588C235.449 30.0382 235.905 30.1279 236.406 30.1279C236.907 30.1279 237.363 30.0382 237.774 29.8588C238.185 29.6756 238.537 29.427 238.828 29.113C239.124 28.7991 239.352 28.4327 239.512 28.0141C239.673 27.5917 239.754 27.1413 239.754 26.6628Z" fill="white"/>
</svg>
