<svg width="300" height="300" viewBox="0 0 300 300" fill="none" xmlns="http://www.w3.org/2000/svg">
<circle opacity="0.5" cx="258" cy="133.997" r="12" transform="rotate(-180 258 133.997)" fill="white"/>
<circle opacity="0.4" cx="258" cy="101.997" r="12" transform="rotate(-180 258 101.997)" fill="white"/>
<circle opacity="0.3" cx="258" cy="69.9971" r="12" transform="rotate(-180 258 69.9971)" fill="white"/>
<circle opacity="0.1" cx="258" cy="37.9971" r="12" transform="rotate(-180 258 37.9971)" fill="white"/>
<circle opacity="0.7" cx="226" cy="133.997" r="12" transform="rotate(-180 226 133.997)" fill="white"/>
<circle opacity="0.5" cx="226" cy="101.997" r="12" transform="rotate(-180 226 101.997)" fill="white"/>
<circle opacity="0.4" cx="226" cy="69.9971" r="12" transform="rotate(-180 226 69.9971)" fill="white"/>
<circle opacity="0.3" cx="226" cy="37.9971" r="12" transform="rotate(-180 226 37.9971)" fill="white"/>
<circle opacity="0.8" cx="194" cy="133.997" r="12" transform="rotate(-180 194 133.997)" fill="white"/>
<circle opacity="0.7" cx="194" cy="101.997" r="12" transform="rotate(-180 194 101.997)" fill="white"/>
<circle opacity="0.5" cx="194" cy="69.9971" r="12" transform="rotate(-180 194 69.9971)" fill="white"/>
<circle opacity="0.4" cx="194" cy="37.9971" r="12" transform="rotate(-180 194 37.9971)" fill="white"/>
<circle opacity="0.9" cx="162" cy="133.997" r="12" transform="rotate(-180 162 133.997)" fill="white"/>
<circle opacity="0.8" cx="162" cy="101.997" r="12" transform="rotate(-180 162 101.997)" fill="white"/>
<circle opacity="0.7" cx="162" cy="69.9971" r="12" transform="rotate(-180 162 69.9971)" fill="white"/>
<circle opacity="0.5" cx="162" cy="37.9971" r="12" transform="rotate(-180 162 37.9971)" fill="white"/>
<circle opacity="0.5" cx="42" cy="165.999" r="12" fill="white"/>
<circle opacity="0.4" cx="42" cy="197.999" r="12" fill="white"/>
<circle opacity="0.3" cx="42" cy="229.999" r="12" fill="white"/>
<circle opacity="0.1" cx="42" cy="261.999" r="12" fill="white"/>
<circle opacity="0.7" cx="74" cy="165.999" r="12" fill="white"/>
<circle opacity="0.5" cx="74" cy="197.999" r="12" fill="white"/>
<circle opacity="0.4" cx="74" cy="229.999" r="12" fill="white"/>
<circle opacity="0.3" cx="74" cy="261.999" r="12" fill="white"/>
<circle opacity="0.8" cx="106" cy="165.999" r="12" fill="white"/>
<circle opacity="0.7" cx="106" cy="197.999" r="12" fill="white"/>
<circle opacity="0.5" cx="106" cy="229.999" r="12" fill="white"/>
<circle opacity="0.4" cx="106" cy="261.999" r="12" fill="white"/>
<circle opacity="0.9" cx="138" cy="165.999" r="12" fill="white"/>
<circle opacity="0.8" cx="138" cy="197.999" r="12" fill="white"/>
<circle opacity="0.7" cx="138" cy="229.999" r="12" fill="white"/>
<circle opacity="0.5" cx="138" cy="261.999" r="12" fill="white"/>
<rect opacity="0.2" x="30" y="31.999" width="102" height="102" fill="white"/>
<rect opacity="0.2" x="168" y="165.999" width="102" height="102" fill="white"/>
</svg>
